<svg xmlns="http://www.w3.org/2000/svg" width="8" height="7" viewBox="0 0 8 7">
    <path fill="#8DA0B6" fill-rule="evenodd" d="M7.27.391a.42.42 0 0 1 .626.064.512.512 0 0 1-.052.679c-.53.482-1.14 1.036-2.079 1.036a3.9 3.9 0 0 1-1.982-.66C2.123.497 1.51 1.07.73 1.777a.422.422 0 0 1-.626-.06.513.513 0 0 1 .052-.678C.98.28 2.014-.658 4.213.66 5.882 1.671 6.492 1.1 7.27.391m0 4.83a.42.42 0 0 1 .626.064.512.512 0 0 1-.052.678C7.314 6.445 6.704 7 5.765 7a3.904 3.904 0 0 1-1.982-.662C2.123 5.328 1.51 5.9.73 6.608a.42.42 0 0 1-.626-.06.513.513 0 0 1 .052-.679c.823-.76 1.858-1.706 4.057-.38 1.669 1.012 2.279.44 3.057-.268m0-2.415a.419.419 0 0 1 .626.077.513.513 0 0 1-.052.67c-.53.482-1.14 1.036-2.079 1.036a3.907 3.907 0 0 1-1.982-.67C2.123 2.91 1.51 3.48.73 4.19a.422.422 0 0 1-.626-.06.513.513 0 0 1 .052-.679c.827-.755 1.858-1.698 4.057-.375 1.669 1.01 2.279.44 3.057-.269"/>
</svg>
