<svg enable-background="new 0 0 100 80.7" viewBox="0 0 100 80.7" xmlns="http://www.w3.org/2000/svg"><path d="m55.5 49.2-1-6.1 4.4-4.4-6.2-.9-2.7-5.7-2.7 5.7-6.2.9 4.4 4.4-1 6.1 5.5-2.9z" fill="none"/><path d="m68.7 26.7-16-9.2c-.9-.5-1.8-.8-2.8-.8s-1.9.3-2.7.8l-16 9.2c-1.7 1-2.7 2.8-2.7 4.8v18.4c0 2 1.1 3.8 2.8 4.8l16 9.2c1.7 1 3.8 1 5.5 0l16-9.2c1.7-1 2.7-2.8 2.7-4.8v-18.4c0-2-1.1-3.8-2.8-4.8zm-6.8 13.4-4.1 4 1 5.6c.1.9-.3 1.9-1 2.5-.2.2-.7.5-1.4.5-.3 0-.7-.1-1.2-.2l-5.2-2.7-5.1 2.7c-1.5.5-2.3.1-2.7-.3-.7-.6-1.1-1.5-.9-2.4l1-5.7-4.1-4c-.6-.6-.9-1.6-.6-2.5.2-1 1-1.6 2-1.8l5.6-.9 2.6-5.2c.4-.8 1.2-1.4 2.2-1.4s1.9.5 2.3 1.4l2.6 5.1 5.6.9c1 .1 1.8.8 2 1.8s0 2-.6 2.6z" fill="none"/><g fill="#c1ebd8"><path d="m60.5 35.9-5.7-.9-2.6-5.1c-.3-.9-1.2-1.4-2.2-1.4s-1.9.5-2.2 1.4l-2.6 5.1-5.6.9c-1 .1-1.8.8-2 1.8-.3.9 0 1.9.6 2.5l4.1 4-1 5.7c-.1.9.3 1.9.9 2.4.4.4 1.2.8 2.7.3l5.1-2.7 5.2 2.7c.5.1.9.2 1.2.2.7 0 1.1-.2 1.4-.5.7-.6 1.1-1.6 1-2.5l-1-5.6 4.1-4c.6-.6.9-1.6.6-2.5-.3-1-1-1.7-2-1.8zm-15 7.2-4.5-4.4 6.3-.9 2.7-5.7 2.7 5.7 6.3.9-4.5 4.4 1.1 6.2-5.6-3-5.5 2.9z"/><path d="m71.3 22.3-16-9.2c-3.2-1.9-7.3-1.9-10.5 0l-16 9.2c-3.2 1.9-5.2 5.4-5.2 9.1v18.6c0 3.8 2 7.3 5.3 9.1l16 9.2c1.5.9 3.4 1.3 5.3 1.3s3.7-.4 5.2-1.3l16-9.2c3.2-1.9 5.2-5.4 5.2-9.1v-18.5c-.1-3.8-2.1-7.3-5.3-9.2zm.2 9.2v18.4c0 2-1.1 3.8-2.7 4.8l-16 9.2c-1.7 1-3.8 1-5.5 0l-16-9.2c-1.7-1-2.8-2.8-2.8-4.8v-18.4c0-2 1.1-3.8 2.7-4.8l16-9.2c.9-.5 1.8-.8 2.7-.8s1.9.3 2.8.8l16 9.2c1.7 1 2.8 2.8 2.8 4.8z"/></g></svg>